PathFileType	4	(X/Y/Z)	H:\MAC\Pilotos\MDrajagopal3\static1.trc																																																																																																																																																																																																																																								
DataRate	CameraRate	NumFrames	NumMarkers	Units	OrigDataRate	OrigDataStartFrame	OrigNumFrames																																																																																																																																																																																																																																				
150	150	4	78	mm	150	938	1500																																																																																																																																																																																																																																				
Frame#	Time	RACR			LACR			C7			CLAV			RASH			RPSH			LASH			LPSH			RUA1			RUA2			RUA3			RLEL			RMEL			RFAsuperior			RFAradius			RFAulna			LUA1			LUA2			LUA3			LLEL			LMEL			LFAsuperior			LFAradius			LFAulna			RASI			LASI			RPSI			LPSI			RTH1			RTH2			RTH3			RLFC			RMFC			RTB1			RTB2			RTB3			RLMAL			RMMAL			RCAL			RTOE			RMT5			LTH1			LTH2			LTH3			LLFC			LMFC			LTB1			LTB2			LTB3			LLMAL			LMMAL			LCAL			LTOE			LMT5			RSJC			LSJC			RHJC			LHJC			RKJC			LKJC			RAJC			LAJC			REJC			LEJC			Mid_ASIS			Mid_PSIS			RASHv			RPSHv			LPSHv			RLFCv			RMFCv			RLMALv			RMMALv			LLFCv			LMFCv			LLMALv			LMMALv			LASHv		
		X1	Y1	Z1	X2	Y2	Z2	X3	Y3	Z3	X4	Y4	Z4	X5	Y5	Z5	X6	Y6	Z6	X7	Y7	Z7	X8	Y8	Z8	X9	Y9	Z9	X10	Y10	Z10	X11	Y11	Z11	X12	Y12	Z12	X13	Y13	Z13	X14	Y14	Z14	X15	Y15	Z15	X16	Y16	Z16	X17	Y17	Z17	X18	Y18	Z18	X19	Y19	Z19	X20	Y20	Z20	X21	Y21	Z21	X22	Y22	Z22	X23	Y23	Z23	X24	Y24	Z24	X25	Y25	Z25	X26	Y26	Z26	X27	Y27	Z27	X28	Y28	Z28	X29	Y29	Z29	X30	Y30	Z30	X31	Y31	Z31	X32	Y32	Z32	X33	Y33	Z33	X34	Y34	Z34	X35	Y35	Z35	X36	Y36	Z36	X37	Y37	Z37	X38	Y38	Z38	X39	Y39	Z39	X40	Y40	Z40	X41	Y41	Z41	X42	Y42	Z42	X43	Y43	Z43	X44	Y44	Z44	X45	Y45	Z45	X46	Y46	Z46	X47	Y47	Z47	X48	Y48	Z48	X49	Y49	Z49	X50	Y50	Z50	X51	Y51	Z51	X52	Y52	Z52	X53	Y53	Z53	X54	Y54	Z54	X55	Y55	Z55	X56	Y56	Z56	X57	Y57	Z57	X58	Y58	Z58	X59	Y59	Z59	X60	Y60	Z60	X61	Y61	Z61	X62	Y62	Z62	X63	Y63	Z63	X64	Y64	Z64	X65	Y65	Z65	X66	Y66	Z66	X67	Y67	Z67	X68	Y68	Z68	X69	Y69	Z69	X70	Y70	Z70	X71	Y71	Z71	X72	Y72	Z72	X73	Y73	Z73	X74	Y74	Z74	X75	Y75	Z75	X76	Y76	Z76	X77	Y77	Z77	X78	Y78	Z78
																																																																																																																																																																																																																																											
938	6.247	689.2774	1391.31421	1385.46167	698.37823	1394.31506	1048.72461	641.05859	1410.97852	1207.36707	790.24493	1371.36121	1259.55945	759.86884	1364.84192	1404.9281	653.24139	1355.71338	1396.76038	771.98645	1378.53772	1042.08411	669.49518	1355.1604	1029.71887	695.59961	1272.84375	1459.56055	738.24109	1205.13635	1478.67004	665.6546	1162.01453	1453.10242	683.24036	1117.68726	1492.86987	740.83069	1091.06677	1431.67993	757.17395	1041.68652	1576.16077	779.57983	967.2215	1627.97083	743.57715	914.75818	1586.47437	700.61359	1295.69934	977.13318	744.0777	1211.4054	948.64471	683.86774	1168.11792	988.14337	714.30457	1132.85596	923.0752	746.18353	1092.53284	999.15228	777.2691	1027.05823	846.16388	824.39197	966.56458	821.04303	776.05084	916.31555	842.26794	827.92987	904.02203	1338.21692	831.74329	899.16669	1111.52808	653.28094	926.82465	1262.08044	650.42719	925.72205	1179.71545	733.67877	798.41748	1390.07166	690.20337	639.79785	1372.02454	756.86237	610.31818	1400.35498	751.83246	469.92368	1392.29785	758.26538	450.23593	1264.10254	784.93683	342.98334	1355.22803	703.01898	326.95996	1425.94849	738.33344	200.13899	1405.41772	684.78937	82.65901	1407.57349	710.09515	86.78254	1319.1665	636.28558	35.92507	1372.10388	845.54749	36.96392	1377.83618	806.98615	33.44561	1424.98889	748.07507	805.9624	1048.96509	700.97089	656.98651	1060.74829	752.27838	580.80383	1046.06641	756.29163	467.49786	1053.97974	742.21484	450.52023	1179.36963	782.95288	352.84525	1095.40857	691.53113	312.53766	1019.62402	746.20026	183.1774	1059.01245	692.58929	77.12875	1044.35779	712.07886	87.05084	1132.8302	643.54254	45.71518	1075.13855	844.86066	37.01532	1079.20593	817.50562	29.7498	1031.22778	706.55511	1360.27771	1400.84424	720.74084	1366.84912	1035.90149	735.598	839.683	1321.949	739.899	839.561	1117.894	755.04895	460.0798	1328.2002	749.25323	459.00906	1116.67468	697.44226	84.72077	1363.37	702.33411	82.0898	1088.59399	712.03552	1104.37695	1462.2749	730.24402	1112.69446	961.11371	829.83661	901.59436	1224.87244	651.85406	926.27332	1220.89795	799.4953	1312.57129	1443.33643	691.50958	1317.04773	1417.37585	732.84412	1397.05615	994.96039	724.49341	501.14767	1414.91113	782.86652	460.43018	1298.33704	703.0976	66.92091	1446.9126	729.10437	62.09116	1359.14624	773.07245	515.34253	1013.0705	782.62354	485.28009	1142.3822	709.78894	60.04948	1031.25732	746.68964	73.00858	1114.5083	817.99182	1376.02625	943.6084
939	6.253	689.30194	1391.32373	1385.42578	698.36749	1394.30505	1048.69385	641.05658	1410.97168	1207.33521	790.27094	1371.36633	1259.52356	759.89661	1364.85205	1404.90222	653.21527	1355.80579	1396.76025	771.99463	1378.53442	1042.0415	669.36603	1355.01978	1029.76306	695.65424	1272.85925	1459.53906	738.29578	1205.15369	1478.65942	665.70868	1162.02588	1453.10156	683.31982	1117.70142	1492.8689	740.8822	1091.08704	1431.68494	757.25671	1041.72656	1576.16248	779.67236	967.27173	1627.97253	743.66425	914.80048	1586.49011	700.60406	1295.69324	977.10254	744.08191	1211.39148	948.61707	683.86938	1168.10803	988.12158	714.29474	1132.84351	923.04193	746.1554	1092.52759	999.13971	777.2572	1027.02466	846.13837	824.37781	966.54095	821.01831	776.03979	916.29999	842.24835	827.9527	904.02893	1338.21265	831.77747	899.18121	1111.52893	653.32928	926.83069	1262.08289	650.44952	925.72302	1179.71716	733.71124	798.414	1390.07678	690.22711	639.79895	1372.02258	756.88336	610.31531	1400.35327	751.84479	469.91806	1392.29858	758.26324	450.23465	1264.10913	784.94171	342.98447	1355.22314	703.02258	326.96072	1425.948	738.35065	200.14075	1405.41357	684.79114	82.65373	1407.57214	710.09094	86.77085	1319.1626	636.28882	35.92962	1372.10449	845.54791	36.97311	1377.83533	806.97833	33.44881	1424.99243	748.08405	805.96057	1048.95728	700.98291	656.98157	1060.76831	752.29053	580.80414	1046.06445	756.29889	467.50812	1053.98706	742.20593	450.52188	1179.38843	782.9679	352.84702	1095.41382	691.53589	312.53311	1019.62933	746.20074	183.17943	1059.01038	692.58923	77.12484	1044.37183	712.0766	87.05064	1132.83081	643.53223	45.71842	1075.11096	844.84814	37.0161	1079.20605	817.50238	29.74903	1031.23218	706.55597	1360.32898	1400.8313	720.68036	1366.7771	1035.90234	735.633	839.688	1321.948	739.933	839.57	1117.892	755.05402	460.07635	1328.20386	749.25244	459.01501	1116.68774	697.44104	84.7123	1363.36731	702.33289	82.08774	1088.60132	712.10101	1104.39429	1462.27698	730.2251	1112.68555	961.09082	829.86511	901.60504	1224.87073	651.8894	926.27686	1220.90002	799.54932	1312.58423	1443.30505	691.56372	1317.05591	1417.3468	732.82458	1397.05432	994.92346	724.50751	501.14377	1414.90442	782.88086	460.42734	1298.33008	703.11292	66.9231	1446.92017	729.11859	62.09061	1359.15369	773.06311	515.33899	1013.06354	782.67255	485.28192	1142.37219	709.80603	60.04856	1031.27246	746.711	73.01005	1114.52112	817.97516	1376.02905	943.57428
940	6.26	689.33105	1391.33508	1385.39087	698.3739	1394.2937	1048.65601	641.06287	1410.96362	1207.30603	790.28784	1371.37329	1259.49536	759.94214	1364.86035	1404.87292	653.25507	1355.81348	1396.729	771.77728	1378.2771	1042.06152	669.37317	1355.00916	1029.73047	695.70673	1272.87244	1459.52283	738.34827	1205.17712	1478.64771	665.7431	1162.05713	1453.10181	683.36908	1117.73022	1492.86926	740.9552	1091.10889	1431.6731	757.3291	1041.76038	1576.16541	779.77734	967.31573	1627.98047	743.75262	914.84467	1586.50684	700.60059	1295.68115	977.07501	744.0661	1211.38086	948.59351	683.87341	1168.09717	988.10535	714.27777	1132.82129	923.02673	746.17578	1092.5166	999.11407	777.23853	1027.01025	846.11627	824.36029	966.52179	821.00391	776.04492	916.27399	842.24768	827.98901	904.02423	1338.19617	831.79102	899.17267	1111.52893	653.35907	926.83972	1262.09558	650.47278	925.72772	1179.73096	733.73303	798.41827	1390.08093	690.25043	639.8017	1372.02405	756.90332	610.31219	1400.35876	751.84973	469.92493	1392.30542	758.26184	450.24118	1264.10266	784.95068	342.98318	1355.23425	703.04004	326.95844	1425.95264	738.34723	200.13306	1405.41138	684.78754	82.65949	1407.57568	710.08197	86.76818	1319.16394	636.28375	35.9276	1372.10559	845.54211	36.96989	1377.83496	806.98755	33.45197	1424.98438	748.09802	805.96466	1048.96936	700.99792	656.98187	1060.77063	752.30066	580.79883	1046.06372	756.32446	467.4895	1053.98828	742.22955	450.5246	1179.38745	782.98102	352.83868	1095.4126	691.54315	312.53955	1019.63293	746.21246	183.3958	1058.99512	692.59027	77.12943	1044.35657	712.0694	87.04385	1132.83655	643.52985	45.69976	1075.12988	844.85651	37.01475	1079.20569	817.49115	29.7506	1031.23157	706.59857	1360.33691	1400.8009	720.5752	1366.64307	1035.896	735.664	839.69	1321.952	739.941	839.568	1117.897	755.05579	460.08307	1328.2041	749.27698	459.00705	1116.68787	697.43475	84.71384	1363.36975	702.32983	82.08664	1088.59656	712.16217	1104.41956	1462.27112	730.22681	1112.66895	961.07043	829.89001	901.59845	1224.86255	651.91589	926.28369	1220.91321	799.60706	1312.57629	1443.27063	691.60944	1317.06128	1417.32312	732.82867	1397.04309	994.87781	724.52881	501.14807	1414.90881	782.91034	460.43158	1298.3385	703.10376	66.91672	1446.89978	729.10669	62.09302	1359.13196	773.08099	515.34576	1013.05695	782.69	485.2804	1142.36365	709.81042	60.05178	1031.22839	746.72437	72.99865	1114.47546	817.96863	1376.00818	943.51495
941	6.267	689.35931	1391.34937	1385.36023	698.3725	1394.29175	1048.61487	641.08392	1410.95447	1207.27893	790.32135	1371.38049	1259.45898	759.97717	1364.88745	1404.84375	653.28363	1355.83838	1396.70923	771.99457	1378.53162	1041.9552	669.48755	1355.12891	1029.62012	695.75616	1272.8905	1459.50525	738.39752	1205.20898	1478.62769	665.80975	1162.05957	1453.10693	683.43903	1117.7572	1492.86389	741.00354	1091.11658	1431.67322	757.43109	1041.79504	1576.1571	779.87262	967.36255	1627.98157	743.83813	914.89215	1586.52588	700.60138	1295.67261	977.04663	744.06189	1211.37231	948.57135	683.85974	1168.09033	988.08319	714.27759	1132.79834	923.00458	746.16113	1092.51123	999.09387	777.24048	1026.99292	846.09235	824.35834	966.50439	820.98944	776.02496	916.24634	842.23975	828.02319	904.02429	1338.18506	831.80988	899.17566	1111.53015	653.39368	926.83795	1262.10022	650.49603	925.72949	1179.73682	733.77179	798.41528	1390.0813	690.26514	639.80164	1372.02856	756.922	610.31171	1400.35596	751.87378	469.9313	1392.30823	758.2547	450.24048	1264.09509	784.95154	342.98584	1355.22571	703.047	326.9541	1425.94702	738.34674	200.13278	1405.41199	684.7843	82.66083	1407.57556	710.07922	86.77119	1319.16333	636.28845	35.92703	1372.10461	845.54248	36.96385	1377.82922	806.97803	33.45021	1424.99072	748.12048	805.95679	1048.97791	701.01172	656.98151	1060.77563	752.3324	580.53113	1046.06714	756.33795	467.48724	1053.99304	742.25018	450.52979	1179.39197	782.94519	352.72546	1095.26123	691.53796	312.66064	1019.85492	746.21844	183.38408	1059.00647	692.58331	77.1208	1044.35791	712.08112	87.05466	1132.83936	643.53656	45.70663	1075.11853	844.84692	37.02331	1079.20044	817.50256	29.7545	1031.23425	706.63037	1360.36292	1400.77649	720.74109	1366.83032	1035.78772	735.699	839.689	1321.952	739.963	839.57	1117.896	755.06421	460.08591	1328.20166	749.29407	459.00851	1116.6925	697.43176	84.71601	1363.36938	702.33221	82.08774	1088.59863	712.22131	1104.43689	1462.26855	730.21936	1112.65479	961.04919	829.9165	901.59998	1224.85767	651.94482	926.28369	1220.91846	799.6463	1312.61121	1443.22876	691.65002	1317.07458	1417.30139	732.83447	1397.03296	994.84882	724.53174	501.14609	1414.90796	782.89252	460.42285	1298.32971	703.12683	66.91152	1446.88745	729.12524	62.09208	1359.11804	773.0899	515.33594	1013.07147	782.68359	485.27155	1142.37952	709.39764	60.04624	1031.01685	746.51276	72.89909	1114.18896	817.9765	1375.99158	943.49213
